Patient4_TMGait_0pt8_01_left_27_EMG.mot
version=1
nRows=16
nColumns=33
inDegrees=no
endheader
time	1LAddLong	2LGlutMax	3LGlutMed	4LIliopsoas	5LSemiMemb	6LBicFemLong	7LRecFem	8LVastMed	9LVastLat	10LGasMed	11LTibAnt	12lTibPost	13LPeroneusLong	14LSol	15LExtDigLong	16LFlexDigLong	17RAddLong	18RGlutMax	19RGlutMed	20RIliopsoas	21RSemiMemb	22RBicFemLong	23RRecFem	24RVastMed	25RVastLat	26RGasMed	27RTibAnt	28RTibPost	29RPeroneusLong	30RSol	31RExtDigLong	32RFlexDigLong
30.415	0.028839	0.035248	0.42602	0.027161	0.015564	-0.032043	-0.18494	-0.006104	-0.044708	-0.64392	0.004272	-0.10162	-0.25757	0.83084	0.027313	-0.82489	-0.066528	0.081787	0.23178	0.02243	0.49301	0.40817	-0.43442	-0.41351	-0.20081	0.00946	0.66559	-0.006256	0.07019	-0.072937	-0.002899	-0.00885
30.416	0.028687	0.06134	0.42129	0.0177	-0.012512	-0.021362	-0.14526	-0.004425	-0.066986	-0.30395	-0.016632	-1.046	0.018158	0.57342	0.0383	0.37094	-0.082245	0.037842	0.27618	0.012207	0.37567	0.52185	-0.38986	-0.31784	-0.058899	0.006866	-0.46188	-0.007782	0.19531	-0.063019	-0.003815	-0.011139
30.417	0.018005	0.028992	0.45197	-0.00824	0.02121	-0.060577	-0.11124	-0.001068	-0.058441	-0.10544	-0.010529	1.0255	0.14618	-0.25299	0.027924	-0.8223	-0.065613	-0.083618	0.10498	0.0354	0.33646	0.54779	-0.3865	-0.34576	-0.012665	-0.001068	-0.89401	-0.006714	0.13733	-0.045166	-0.002136	-0.010376
30.418	0.022736	0.025787	0.54169	-0.009155	0.099182	-0.029297	-0.11704	-0.004883	-0.057983	0.25085	0.01297	0.59998	0.12436	-0.36362	0.046234	0.78552	-0.035553	-0.096893	0.12833	-0.099945	0.34668	0.59265	-0.45303	-0.31616	-0.020905	0.002136	-0.5835	-0.002594	0.066223	-0.021057	-0.000763	-0.000153
30.419	0.012817	-0.00946	0.62546	-0.012817	0.074768	0.032654	-0.10574	-0.002594	-0.056763	0.25635	-0.026398	-0.087433	0.21591	-0.36087	0.066833	-0.21011	-0.011597	-0.18372	0.094299	-0.12085	0.33402	0.53101	-0.47058	-0.00351	0.005341	-0.001526	-0.37659	-0.002441	0.028534	0.05249	-0.00351	0.000305
30.42	0.013885	-0.039215	0.63431	-0.01236	0.064697	0.021973	-0.15747	-0.002289	-0.041351	-0.02121	-0.030212	-0.023651	0.19943	-0.28641	0.033875	0.16327	0.006409	-0.18021	-0.1329	-0.022736	0.30624	0.40115	-0.35919	0.052032	0.1651	0.008392	-0.20187	-0.001984	0.020752	0.058746	-0.010223	-0.005493
30.421	0.014191	-0.11795	0.58426	-0.005798	0.024261	-0.007324	-0.14206	-0.001678	-0.033417	-0.16251	-0.01358	-0.28854	0.050049	-0.39429	-0.033875	0.01297	-0.015869	-0.25787	-0.21271	0.10025	0.27481	0.36392	-0.33829	0.62118	0.23941	-0.001068	0.001678	-0.001373	-0.037689	0.051422	-0.001526	-0.007172
30.422	0.012512	-0.13947	0.57968	-0.000916	0.025024	-0.050354	-0.16769	0.003204	-0.03006	-0.020905	-0.004425	-0.30212	-0.24582	-0.05127	-0.075073	0.513	-0.029144	-0.31921	-0.16083	0.13641	0.25284	0.35126	-0.33356	1.1658	0.17319	0	0.047607	-0.000153	-0.089111	0.087433	-0.001068	-0.006561
30.423	0.014648	-0.12466	0.66834	0.00351	0.04776	-0.086365	-0.16892	0.001984	-0.028076	-0.035706	0.026855	-0.1265	-0.23514	0.096741	-0.03891	0.30945	0.038452	-0.39322	-0.15243	0.068512	0.224	0.28488	-0.25604	0.8371	0.15198	-0.008545	-0.042877	-0.01297	-0.082245	-0.026703	0.000458	0.002136
30.424	0.016022	-0.12283	0.67825	-0.011597	0.062561	-0.005035	-0.18204	-0.005798	-0.008392	-0.057373	0.005493	0.39093	-0.18829	0.15747	0.077972	-0.090942	0.082245	-0.35751	-0.24017	0.024719	0.15335	0.22812	0.029297	0.59784	0.037689	-0.012054	-0.05249	-0.019836	-0.023956	-0.18814	-0.001221	-0.008087
30.425	0.015869	-0.1001	0.62225	0.00473	0.023651	0.052795	-0.1622	-0.005341	-0.007477	-0.042114	-0.009918	-0.57785	0.060883	0.45364	0.11795	-0.19974	0.074005	-0.22492	-0.3952	0.099182	0.27893	0.22675	0.034637	0.24719	0.045013	-0.012207	-0.058746	-0.018005	0.029602	-0.11841	-0.004883	-0.007629
30.426	0.021667	-0.092773	0.6192	0.01709	-0.020142	0.046082	-0.15167	0.000458	-0.005493	0.10147	0.016479	0.21851	0.098724	0.63812	0.1651	-0.072327	0.0737	-0.16754	-0.52612	0.13138	0.3035	0.26169	-0.013428	-0.20508	0.097504	-0.008087	-0.045319	-0.004272	0.098877	-0.034027	-0.002136	-0.001526
30.427	0.010529	-0.1001	0.61325	0.004272	-0.016022	0.072174	-0.1358	-0.001068	-0.007172	0.30395	-0.012207	0.46799	0.033875	-0.096588	0.14038	0.30472	0.075531	-0.18814	-0.66238	0.12604	0.22125	0.22476	-0.031128	-0.43793	0.061493	-0.008392	-0.016174	-0.007629	0.12283	-0.066071	-0.002136	-0.001526
30.428	0.012665	-0.095825	0.61554	0.007935	0.004883	0.07782	-0.12604	-0.00473	-0.003662	0.3714	-0.011139	0.31326	0.39307	-1.5678	0.051117	-0.07309	0.090485	-0.088196	-0.54092	0.029449	0.16769	0.26596	-0.001831	-0.64346	0.095367	-0.011597	0.008392	-0.00946	0.003662	-0.13275	-0.001678	0.002289
30.429	0.015259	-0.11246	0.58227	0.007324	0.006409	0.071411	-0.12833	-0.000305	0.001831	0.1886	-0.014343	-0.20462	0.55145	-1.5044	-0.031586	0.038605	0.11063	0.007019	0.34622	-0.072479	0.14023	0.298	0.030823	-0.46005	0.21515	-0.009155	0.026855	-0.005951	-0.096436	-0.09964	-0.002899	-0.001373
30.43	0.008545	-0.10376	0.61386	0.007324	-0.003357	0.078888	-0.13275	-0.001678	0.014038	-0.16266	-0.045624	-0.41489	-0.044708	-0.2272	-0.002441	0.033722	0.112	-0.016327	1.1058	-0.08667	0.076294	0.17303	-0.015869	-0.29846	0.49103	-0.008087	0.04837	-0.009613	-0.15961	-0.090179	-0.003662	0.00061
